<?xml version="1.0" encoding="UTF-8"?>
<svg width="40px" height="40px" viewBox="0 0 40 40" version="1.1" xmlns="http://www.w3.org/2000/svg" xmlns:xlink="http://www.w3.org/1999/xlink">
    <!-- Generator: Sketch 54.1 (76490) - https://sketchapp.com -->
    <title>icon/ PROGRAMA / Academy Copy</title>
    <desc>Created with Sketch.</desc>
    <g id="icon/-PROGRAMA-/-Academy-Copy" stroke="none" stroke-width="1" fill="none" fill-rule="evenodd">
        <g id="Group" transform="translate(12.000000, 8.000000)" stroke="#555555">
            <rect id="Rectangle" x="0.5" y="1.58695652" width="15.3043478" height="22.9130435" rx="1"></rect>
            <path d="M7.90513834,6.52173913 L13.3399209,6.52173913" id="Stroke-13-Copy" stroke-linecap="round" stroke-linejoin="round"></path>
            <path d="M7.90513834,10.8695652 L13.3399209,10.8695652" id="Stroke-13-Copy-2" stroke-linecap="round" stroke-linejoin="round"></path>
            <path d="M7.90513834,15.2173913 L13.3399209,15.2173913" id="Stroke-13-Copy-3" stroke-linecap="round" stroke-linejoin="round"></path>
            <path d="M7.90513834,19.5652174 L13.3399209,19.5652174" id="Stroke-13-Copy-4" stroke-linecap="round" stroke-linejoin="round"></path>
            <path d="M8.15217391,2.7178957 L8.15217391,0" id="Line-2" stroke-linecap="round"></path>
            <path d="M11.4130435,2.7178957 L11.4130435,0" id="Line-2-Copy" stroke-linecap="round"></path>
            <path d="M4.89130435,2.7178957 L4.89130435,0" id="Line-2-Copy-2" stroke-linecap="round"></path>
            <polyline id="Path-12" stroke-linecap="round" stroke-linejoin="round" points="3.26086957 19.9429439 4.22577386 20.9078481 5.97826087 18.4257176"></polyline>
            <polyline id="Path-12-Copy" stroke-linecap="round" stroke-linejoin="round" points="3.26086957 15.6476611 4.22577386 16.6125654 5.97826087 14.1304348"></polyline>
            <polyline id="Path-12-Copy-2" stroke-linecap="round" stroke-linejoin="round" points="3.26086957 11.299835 4.22577386 12.2647393 5.97826087 9.7826087"></polyline>
            <polyline id="Path-12-Copy-3" stroke-linecap="round" stroke-linejoin="round" points="3.26086957 6.9520089 4.22577386 7.9169132 5.97826087 5.43478261"></polyline>
        </g>
    </g>
</svg>