<?xml version="1.0" encoding="UTF-8"?>
<svg width="40px" height="40px" viewBox="0 0 40 40" version="1.1" xmlns="http://www.w3.org/2000/svg" xmlns:xlink="http://www.w3.org/1999/xlink">
    <!-- Generator: Sketch 54.1 (76490) - https://sketchapp.com -->
    <title>icon/ METODOLOGÍA / Nutrición Copy</title>
    <desc>Created with Sketch.</desc>
    <g id="icon/-METODOLOGÍA-/-Nutrición-Copy" stroke="none" stroke-width="1" fill="none" fill-rule="evenodd" stroke-linecap="round" stroke-linejoin="round">
        <g id="Group" transform="translate(5.000000, 10.000000)" stroke="#555555">
            <path d="M25.3448276,9.31034483 C25.3448276,14.4524483 21.1765862,18.6206897 16.0344828,18.6206897 C10.8923793,18.6206897 6.72413793,14.4524483 6.72413793,9.31034483 C6.72413793,4.16824138 10.8923793,0 16.0344828,0 C21.1765862,0 25.3448276,4.16824138 25.3448276,9.31034483 Z" id="Stroke-1"></path>
            <path d="M21.2068966,9.31034483 C21.2068966,12.1663793 18.8905172,14.4827586 16.0344828,14.4827586 C13.1784483,14.4827586 10.862069,12.1663793 10.862069,9.31034483 C10.862069,6.45431034 13.1784483,4.13793103 16.0344828,4.13793103 C18.8905172,4.13793103 21.2068966,6.45431034 21.2068966,9.31034483 Z" id="Stroke-3"></path>
            <path d="M2.06896552,19.137931 L2.06896552,8.79310345" id="Stroke-5"></path>
            <path d="M2.06896552,0.517241379 L2.06896552,4.65517241" id="Stroke-7"></path>
            <path d="M0,0.517241379 L0,4.65517241 C0,5.79724138 0.926896552,6.72413793 2.06896552,6.72413793 C3.21103448,6.72413793 4.13793103,5.79724138 4.13793103,4.65517241 L4.13793103,0.517241379" id="Stroke-9"></path>
            <path d="M30,19.137931 L30,0.517241379 C28.857931,0.517241379 27.9310345,1.44413793 27.9310345,2.5862069 L27.9310345,10.862069 C27.9310345,12.0041379 28.857931,12.9310345 30,12.9310345" id="Stroke-11"></path>
        </g>
    </g>
</svg>