<?xml version="1.0" encoding="UTF-8"?>
<svg width="40px" height="40px" viewBox="0 0 40 40" version="1.1" xmlns="http://www.w3.org/2000/svg" xmlns:xlink="http://www.w3.org/1999/xlink">
    <!-- Generator: Sketch 54.1 (76490) - https://sketchapp.com -->
    <title>icon/ METODOLOGÍA / Terapias Naturales</title>
    <desc>Created with Sketch.</desc>
    <g id="icon/-METODOLOGÍA-/-Terapias-Naturales" stroke="none" stroke-width="1" fill="none" fill-rule="evenodd">
        <g id="Group-9" transform="translate(19.724810, 19.724810) rotate(-315.000000) translate(-19.724810, -19.724810) translate(10.658143, 3.724810)" stroke="#555555">
            <path d="M8.63978045,25.1428571 C13.4113994,25.1428571 17.2795609,21.2746957 17.2795609,16.5030767 C17.2795609,9.44574342 9.71957956,-1.77635684e-15 8.63978045,-1.77635684e-15 C7.55998134,-1.58394325e-15 -6.297185e-13,9.44574342 -6.297185e-13,16.5030767 C-6.29517699e-13,21.2746957 3.86816147,25.1428571 8.63978045,25.1428571 Z" id="Oval"></path>
            <path d="M8.63978045,-3.99680289e-15 L8.63978045,31.4285714" id="Line-3" stroke-linecap="round"></path>
            <path d="M8.63978045,19.4285714 L17.211209,14.2857143" id="Line-4"></path>
            <path d="M0.639780451,14.8571429 L8.06835188,10.2857143" id="Line-4-Copy-2" transform="translate(4.639780, 12.571429) scale(-1, 1) translate(-4.639780, -12.571429) "></path>
            <path d="M8.63978045,10.2857143 L13.7826376,7.42857143" id="Line-4-Copy"></path>
        </g>
    </g>
</svg>