<?xml version="1.0" encoding="utf-8"?>
<!-- Generator: Adobe Illustrator 21.0.2, SVG Export Plug-In . SVG Version: 6.00 Build 0)  -->
<svg version="1.1" id="Capa_1" xmlns="http://www.w3.org/2000/svg" xmlns:xlink="http://www.w3.org/1999/xlink" x="0px" y="0px"
	 viewBox="0 0 102 37.5" style="enable-background:new 0 0 102 37.5;" xml:space="preserve">
<style type="text/css">
	.st0{clip-path:url(#SVGID_2_);}
	.st1{clip-path:url(#SVGID_4_);fill:#FFFFFF;}
	.st2{clip-path:url(#SVGID_6_);}
	.st3{clip-path:url(#SVGID_8_);fill:#FFFFFF;}
	.st4{clip-path:url(#SVGID_10_);}
	.st5{clip-path:url(#SVGID_12_);fill:#FFFFFF;}
	.st6{clip-path:url(#SVGID_14_);}
	.st7{clip-path:url(#SVGID_16_);fill:#FFFFFF;}
	.st8{clip-path:url(#SVGID_18_);}
	.st9{clip-path:url(#SVGID_20_);fill:#FFFFFF;}
	.st10{clip-path:url(#SVGID_22_);}
	.st11{clip-path:url(#SVGID_24_);fill:#FFFFFF;}
	.st12{clip-path:url(#SVGID_26_);}
	.st13{clip-path:url(#SVGID_28_);fill:#FFFFFF;}
	.st14{clip-path:url(#SVGID_30_);}
	.st15{clip-path:url(#SVGID_32_);fill:#FFFFFF;}
	.st16{clip-path:url(#SVGID_34_);}
	.st17{clip-path:url(#SVGID_36_);fill:#FFFFFF;}
	.st18{clip-path:url(#SVGID_38_);}
	.st19{clip-path:url(#SVGID_40_);fill:#FFFFFF;}
	.st20{clip-path:url(#SVGID_42_);}
	.st21{clip-path:url(#SVGID_44_);fill:#FFFFFF;}
	.st22{clip-path:url(#SVGID_46_);}
	.st23{clip-path:url(#SVGID_48_);fill:#FFFFFF;}
	.st24{clip-path:url(#SVGID_50_);}
	.st25{clip-path:url(#SVGID_52_);fill:#FFFFFF;}
	.st26{clip-path:url(#SVGID_54_);}
	.st27{clip-path:url(#SVGID_56_);fill:#FFFFFF;}
	.st28{clip-path:url(#SVGID_58_);}
	.st29{clip-path:url(#SVGID_60_);fill:#FFFFFF;}
	.st30{clip-path:url(#SVGID_62_);}
	.st31{clip-path:url(#SVGID_64_);fill:#FFFFFF;}
	.st32{clip-path:url(#SVGID_66_);}
	.st33{clip-path:url(#SVGID_68_);fill:#FFFFFF;}
</style>
<g>
	<defs>
		<path id="SVGID_1_" d="M26.6,6.5c-3.2-1.5-6.9-2.2-11-2.2c-3.3,0-5.8,0.4-7.6,1.1C6.2,6.2,5.4,7.3,5.4,8.6c0,1.3,0.8,2.3,2.5,2.9
			c1.5,0.5,4,0.8,7.6,0.9c3,0.1,5.1,0.2,6.2,0.3c2,0.2,3.5,0.5,4.7,0.9c2.6,0.9,3.9,2.6,3.9,4.9c0,2.2-1.2,4-3.5,5.2
			c-2.4,1.3-5.7,1.9-10.1,1.9c-6,0-10.8-1.1-14.6-3.3l1.4-1.7c3.9,2.1,8.1,3.1,12.7,3.1c3.7,0,6.5-0.5,8.4-1.4
			c2-0.9,2.9-2.2,2.9-3.8c0-1.5-0.9-2.6-2.7-3.3c-1.6-0.6-4.3-1-8.1-1.1c-2.8-0.1-4.8-0.2-5.9-0.3c-1.8-0.1-3.3-0.4-4.4-0.7
			C3.9,12.5,2.6,11,2.6,8.9c0-2,1.1-3.5,3.3-4.7c2.2-1.1,5.4-1.7,9.5-1.7c5.5,0,9.8,0.8,12.8,2.5L26.6,6.5z"/>
	</defs>
	<use xlink:href="#SVGID_1_"  style="overflow:visible;fill-rule:evenodd;clip-rule:evenodd;fill:#FFFFFF;"/>
	<clipPath id="SVGID_2_">
		<use xlink:href="#SVGID_1_"  style="overflow:visible;"/>
	</clipPath>
	<g class="st0">
		<defs>
			<rect id="SVGID_3_" x="1" y="2" width="100" height="34"/>
		</defs>
		<use xlink:href="#SVGID_3_"  style="overflow:visible;fill:#FFFFFF;"/>
		<clipPath id="SVGID_4_">
			<use xlink:href="#SVGID_3_"  style="overflow:visible;"/>
		</clipPath>
		<rect x="-3" y="-2.5" class="st1" width="38.2" height="33.2"/>
	</g>
</g>
<g>
	<defs>
		<polygon id="SVGID_5_" points="64.2,25.2 61.8,25.2 61.8,14.4 38.6,14.4 38.6,25.2 36.3,25.2 36.3,3 38.6,3 38.6,12.5 61.8,12.5 
			61.8,3 64.2,3 		"/>
	</defs>
	<use xlink:href="#SVGID_5_"  style="overflow:visible;fill-rule:evenodd;clip-rule:evenodd;fill:#FFFFFF;"/>
	<clipPath id="SVGID_6_">
		<use xlink:href="#SVGID_5_"  style="overflow:visible;"/>
	</clipPath>
	<g class="st2">
		<defs>
			<rect id="SVGID_7_" x="1" y="2" width="100" height="34"/>
		</defs>
		<use xlink:href="#SVGID_7_"  style="overflow:visible;fill:#FFFFFF;"/>
		<clipPath id="SVGID_8_">
			<use xlink:href="#SVGID_7_"  style="overflow:visible;"/>
		</clipPath>
		<rect x="31.3" y="-2" class="st3" width="37.9" height="32.1"/>
	</g>
</g>
<g>
	<defs>
		<path id="SVGID_9_" d="M100.5,25.2h-2.7l-3.6-5.7H75.5l-3.7,5.7H69L83,3h3.5L100.5,25.2z M92.9,17.5L85,4.9l-0.4,0l-8,12.5H92.9z"
			/>
	</defs>
	<use xlink:href="#SVGID_9_"  style="overflow:visible;fill-rule:evenodd;clip-rule:evenodd;fill:#FFFFFF;"/>
	<clipPath id="SVGID_10_">
		<use xlink:href="#SVGID_9_"  style="overflow:visible;"/>
	</clipPath>
	<g class="st4">
		<defs>
			<rect id="SVGID_11_" x="1" y="2" width="100" height="34"/>
		</defs>
		<use xlink:href="#SVGID_11_"  style="overflow:visible;fill:#FFFFFF;"/>
		<clipPath id="SVGID_12_">
			<use xlink:href="#SVGID_11_"  style="overflow:visible;"/>
		</clipPath>
		<rect x="64" y="-2" class="st5" width="41.5" height="32.1"/>
	</g>
</g>
<g>
	<defs>
		<polygon id="SVGID_13_" points="17.9,31.5 16.6,35.6 16.1,35.6 14.9,31.8 13.9,35.6 13.3,35.6 12,31.5 12.4,31.5 13.6,35.2 
			14.7,31.5 15.2,31.5 16.4,35.2 17.5,31.5 		"/>
	</defs>
	<use xlink:href="#SVGID_13_"  style="overflow:visible;fill-rule:evenodd;clip-rule:evenodd;fill:#FFFFFF;"/>
	<clipPath id="SVGID_14_">
		<use xlink:href="#SVGID_13_"  style="overflow:visible;"/>
	</clipPath>
	<g class="st6">
		<defs>
			<rect id="SVGID_15_" x="1" y="2" width="100" height="34"/>
		</defs>
		<use xlink:href="#SVGID_15_"  style="overflow:visible;fill:#FFFFFF;"/>
		<clipPath id="SVGID_16_">
			<use xlink:href="#SVGID_15_"  style="overflow:visible;"/>
		</clipPath>
		<rect x="7" y="26.5" class="st7" width="16" height="14.1"/>
	</g>
</g>
<g>
	<defs>
		<polygon id="SVGID_17_" points="23.5,35.6 19.6,35.6 19.6,31.5 23.4,31.5 23.4,31.8 19.9,31.8 19.9,33.2 22.3,33.2 22.3,33.6 
			19.9,33.6 19.9,35.2 23.5,35.2 		"/>
	</defs>
	<use xlink:href="#SVGID_17_"  style="overflow:visible;fill-rule:evenodd;clip-rule:evenodd;fill:#FFFFFF;"/>
	<clipPath id="SVGID_18_">
		<use xlink:href="#SVGID_17_"  style="overflow:visible;"/>
	</clipPath>
	<g class="st8">
		<defs>
			<rect id="SVGID_19_" x="1" y="2" width="100" height="34"/>
		</defs>
		<use xlink:href="#SVGID_19_"  style="overflow:visible;fill:#FFFFFF;"/>
		<clipPath id="SVGID_20_">
			<use xlink:href="#SVGID_19_"  style="overflow:visible;"/>
		</clipPath>
		<rect x="14.6" y="26.5" class="st9" width="14" height="14.1"/>
	</g>
</g>
<g>
	<defs>
		<polygon id="SVGID_21_" points="28.8,35.6 25.3,35.6 25.3,31.5 25.7,31.5 25.7,35.2 28.8,35.2 		"/>
	</defs>
	<use xlink:href="#SVGID_21_"  style="overflow:visible;fill-rule:evenodd;clip-rule:evenodd;fill:#FFFFFF;"/>
	<clipPath id="SVGID_22_">
		<use xlink:href="#SVGID_21_"  style="overflow:visible;"/>
	</clipPath>
	<g class="st10">
		<defs>
			<rect id="SVGID_23_" x="1" y="2" width="100" height="34"/>
		</defs>
		<use xlink:href="#SVGID_23_"  style="overflow:visible;fill:#FFFFFF;"/>
		<clipPath id="SVGID_24_">
			<use xlink:href="#SVGID_23_"  style="overflow:visible;"/>
		</clipPath>
		<rect x="20.3" y="26.5" class="st11" width="13.5" height="14.1"/>
	</g>
</g>
<g>
	<defs>
		<polygon id="SVGID_25_" points="33.9,35.6 30.4,35.6 30.4,31.5 30.8,31.5 30.8,35.2 33.9,35.2 		"/>
	</defs>
	<use xlink:href="#SVGID_25_"  style="overflow:visible;fill-rule:evenodd;clip-rule:evenodd;fill:#FFFFFF;"/>
	<clipPath id="SVGID_26_">
		<use xlink:href="#SVGID_25_"  style="overflow:visible;"/>
	</clipPath>
	<g class="st12">
		<defs>
			<rect id="SVGID_27_" x="1" y="2" width="100" height="34"/>
		</defs>
		<use xlink:href="#SVGID_27_"  style="overflow:visible;fill:#FFFFFF;"/>
		<clipPath id="SVGID_28_">
			<use xlink:href="#SVGID_27_"  style="overflow:visible;"/>
		</clipPath>
		<rect x="25.4" y="26.5" class="st13" width="13.5" height="14.1"/>
	</g>
</g>
<g>
	<defs>
		<polygon id="SVGID_29_" points="39.8,35.6 39.3,35.6 35.8,31.8 35.8,35.6 35.5,35.6 35.5,31.5 36,31.5 39.5,35.2 39.5,31.5 
			39.8,31.5 		"/>
	</defs>
	<use xlink:href="#SVGID_29_"  style="overflow:visible;fill-rule:evenodd;clip-rule:evenodd;fill:#FFFFFF;"/>
	<clipPath id="SVGID_30_">
		<use xlink:href="#SVGID_29_"  style="overflow:visible;"/>
	</clipPath>
	<g class="st14">
		<defs>
			<rect id="SVGID_31_" x="1" y="2" width="100" height="34"/>
		</defs>
		<use xlink:href="#SVGID_31_"  style="overflow:visible;fill:#FFFFFF;"/>
		<clipPath id="SVGID_32_">
			<use xlink:href="#SVGID_31_"  style="overflow:visible;"/>
		</clipPath>
		<rect x="30.5" y="26.5" class="st15" width="14.4" height="14.1"/>
	</g>
</g>
<g>
	<defs>
		<polygon id="SVGID_33_" points="46,35.6 42.1,35.6 42.1,31.5 45.9,31.5 45.9,31.8 42.4,31.8 42.4,33.2 44.8,33.2 44.8,33.6 
			42.4,33.6 42.4,35.2 46,35.2 		"/>
	</defs>
	<use xlink:href="#SVGID_33_"  style="overflow:visible;fill-rule:evenodd;clip-rule:evenodd;fill:#FFFFFF;"/>
	<clipPath id="SVGID_34_">
		<use xlink:href="#SVGID_33_"  style="overflow:visible;"/>
	</clipPath>
	<g class="st16">
		<defs>
			<rect id="SVGID_35_" x="1" y="2" width="100" height="34"/>
		</defs>
		<use xlink:href="#SVGID_35_"  style="overflow:visible;fill:#FFFFFF;"/>
		<clipPath id="SVGID_36_">
			<use xlink:href="#SVGID_35_"  style="overflow:visible;"/>
		</clipPath>
		<rect x="37.1" y="26.5" class="st17" width="14" height="14.1"/>
	</g>
</g>
<g>
	<defs>
		<path id="SVGID_37_" d="M51.3,32.1c-0.5-0.3-1.1-0.4-1.7-0.4c-0.5,0-0.9,0.1-1.2,0.2c-0.3,0.1-0.4,0.3-0.4,0.6
			c0,0.2,0.1,0.4,0.4,0.5c0.2,0.1,0.6,0.2,1.2,0.2c0.5,0,0.8,0,1,0.1c0.3,0,0.5,0.1,0.7,0.2c0.4,0.2,0.6,0.5,0.6,0.9
			c0,0.4-0.2,0.7-0.5,1c-0.4,0.2-0.9,0.4-1.6,0.4c-0.9,0-1.7-0.2-2.3-0.6l0.2-0.3c0.6,0.4,1.3,0.6,2,0.6c0.6,0,1-0.1,1.3-0.3
			c0.3-0.2,0.5-0.4,0.5-0.7c0-0.3-0.1-0.5-0.4-0.6c-0.2-0.1-0.7-0.2-1.3-0.2c-0.4,0-0.7,0-0.9-0.1c-0.3,0-0.5-0.1-0.7-0.1
			c-0.4-0.2-0.6-0.4-0.6-0.8c0-0.4,0.2-0.7,0.5-0.9c0.3-0.2,0.8-0.3,1.5-0.3c0.9,0,1.5,0.2,2,0.5L51.3,32.1z"/>
	</defs>
	<use xlink:href="#SVGID_37_"  style="overflow:visible;fill-rule:evenodd;clip-rule:evenodd;fill:#FFFFFF;"/>
	<clipPath id="SVGID_38_">
		<use xlink:href="#SVGID_37_"  style="overflow:visible;"/>
	</clipPath>
	<g class="st18">
		<defs>
			<rect id="SVGID_39_" x="1" y="2" width="100" height="34"/>
		</defs>
		<use xlink:href="#SVGID_39_"  style="overflow:visible;fill:#FFFFFF;"/>
		<clipPath id="SVGID_40_">
			<use xlink:href="#SVGID_39_"  style="overflow:visible;"/>
		</clipPath>
		<rect x="42.5" y="26.4" class="st19" width="14.4" height="14.3"/>
	</g>
</g>
<g>
	<defs>
		<path id="SVGID_41_" d="M57.4,32.1c-0.5-0.3-1.1-0.4-1.7-0.4c-0.5,0-0.9,0.1-1.2,0.2c-0.3,0.1-0.4,0.3-0.4,0.6
			c0,0.2,0.1,0.4,0.4,0.5c0.2,0.1,0.6,0.2,1.2,0.2c0.5,0,0.8,0,1,0.1c0.3,0,0.5,0.1,0.7,0.2c0.4,0.2,0.6,0.5,0.6,0.9
			c0,0.4-0.2,0.7-0.5,1c-0.4,0.2-0.9,0.4-1.6,0.4c-0.9,0-1.7-0.2-2.3-0.6l0.2-0.3c0.6,0.4,1.3,0.6,2,0.6c0.6,0,1-0.1,1.3-0.3
			c0.3-0.2,0.5-0.4,0.5-0.7c0-0.3-0.1-0.5-0.4-0.6c-0.2-0.1-0.7-0.2-1.3-0.2c-0.4,0-0.7,0-0.9-0.1c-0.3,0-0.5-0.1-0.7-0.1
			c-0.4-0.2-0.6-0.4-0.6-0.8c0-0.4,0.2-0.7,0.5-0.9c0.3-0.2,0.8-0.3,1.5-0.3c0.9,0,1.5,0.2,2,0.5L57.4,32.1z"/>
	</defs>
	<use xlink:href="#SVGID_41_"  style="overflow:visible;fill-rule:evenodd;clip-rule:evenodd;fill:#FFFFFF;"/>
	<clipPath id="SVGID_42_">
		<use xlink:href="#SVGID_41_"  style="overflow:visible;"/>
	</clipPath>
	<g class="st20">
		<defs>
			<rect id="SVGID_43_" x="1" y="2" width="100" height="34"/>
		</defs>
		<use xlink:href="#SVGID_43_"  style="overflow:visible;fill:#FFFFFF;"/>
		<clipPath id="SVGID_44_">
			<use xlink:href="#SVGID_43_"  style="overflow:visible;"/>
		</clipPath>
		<rect x="48.6" y="26.4" class="st21" width="14.4" height="14.3"/>
	</g>
</g>
<g>
	<defs>
		<path id="SVGID_45_" d="M66.6,32.2l-0.3,0.1c-0.4-0.5-1-0.7-1.8-0.7c-0.6,0-1,0.2-1.4,0.5c-0.4,0.4-0.7,0.8-0.7,1.4
			c0,0.5,0.2,1,0.6,1.3c0.4,0.3,0.9,0.5,1.5,0.5c0.8,0,1.4-0.2,1.8-0.7l0.3,0.2c-0.4,0.6-1.1,0.8-2.1,0.8c-0.5,0-1-0.1-1.4-0.3
			c-0.4-0.2-0.6-0.4-0.8-0.8c-0.2-0.3-0.3-0.7-0.3-1.1c0-0.7,0.3-1.2,0.8-1.6c0.5-0.4,1-0.6,1.7-0.6C65.5,31.3,66.2,31.6,66.6,32.2"
			/>
	</defs>
	<use xlink:href="#SVGID_45_"  style="overflow:visible;fill-rule:evenodd;clip-rule:evenodd;fill:#FFFFFF;"/>
	<clipPath id="SVGID_46_">
		<use xlink:href="#SVGID_45_"  style="overflow:visible;"/>
	</clipPath>
	<g class="st22">
		<defs>
			<rect id="SVGID_47_" x="1" y="2" width="100" height="34"/>
		</defs>
		<use xlink:href="#SVGID_47_"  style="overflow:visible;fill:#FFFFFF;"/>
		<clipPath id="SVGID_48_">
			<use xlink:href="#SVGID_47_"  style="overflow:visible;"/>
		</clipPath>
		<rect x="57" y="26.3" class="st23" width="14.6" height="14.4"/>
	</g>
</g>
<g>
	<defs>
		<polygon id="SVGID_49_" points="72.1,35.6 68.6,35.6 68.6,31.5 69,31.5 69,35.2 72.1,35.2 		"/>
	</defs>
	<use xlink:href="#SVGID_49_"  style="overflow:visible;fill-rule:evenodd;clip-rule:evenodd;fill:#FFFFFF;"/>
	<clipPath id="SVGID_50_">
		<use xlink:href="#SVGID_49_"  style="overflow:visible;"/>
	</clipPath>
	<g class="st24">
		<defs>
			<rect id="SVGID_51_" x="1" y="2" width="100" height="34"/>
		</defs>
		<use xlink:href="#SVGID_51_"  style="overflow:visible;fill:#FFFFFF;"/>
		<clipPath id="SVGID_52_">
			<use xlink:href="#SVGID_51_"  style="overflow:visible;"/>
		</clipPath>
		<rect x="63.6" y="26.5" class="st25" width="13.5" height="14.1"/>
	</g>
</g>
<g>
	<defs>
		<rect id="SVGID_53_" x="73.7" y="31.5" width="0.4" height="4.1"/>
	</defs>
	<use xlink:href="#SVGID_53_"  style="overflow:visible;fill-rule:evenodd;clip-rule:evenodd;fill:#FFFFFF;"/>
	<clipPath id="SVGID_54_">
		<use xlink:href="#SVGID_53_"  style="overflow:visible;"/>
	</clipPath>
	<g class="st26">
		<defs>
			<rect id="SVGID_55_" x="1" y="2" width="100" height="34"/>
		</defs>
		<use xlink:href="#SVGID_55_"  style="overflow:visible;fill:#FFFFFF;"/>
		<clipPath id="SVGID_56_">
			<use xlink:href="#SVGID_55_"  style="overflow:visible;"/>
		</clipPath>
		<rect x="68.7" y="26.5" class="st27" width="10.4" height="14.1"/>
	</g>
</g>
<g>
	<defs>
		<polygon id="SVGID_57_" points="80.6,35.6 80.1,35.6 76.6,31.8 76.6,35.6 76.3,35.6 76.3,31.5 76.8,31.5 80.3,35.2 80.3,31.5 
			80.6,31.5 		"/>
	</defs>
	<use xlink:href="#SVGID_57_"  style="overflow:visible;fill-rule:evenodd;clip-rule:evenodd;fill:#FFFFFF;"/>
	<clipPath id="SVGID_58_">
		<use xlink:href="#SVGID_57_"  style="overflow:visible;"/>
	</clipPath>
	<g class="st28">
		<defs>
			<rect id="SVGID_59_" x="1" y="2" width="100" height="34"/>
		</defs>
		<use xlink:href="#SVGID_59_"  style="overflow:visible;fill:#FFFFFF;"/>
		<clipPath id="SVGID_60_">
			<use xlink:href="#SVGID_59_"  style="overflow:visible;"/>
		</clipPath>
		<rect x="71.3" y="26.5" class="st29" width="14.4" height="14.1"/>
	</g>
</g>
<g>
	<defs>
		<rect id="SVGID_61_" x="82.9" y="31.5" width="0.4" height="4.1"/>
	</defs>
	<use xlink:href="#SVGID_61_"  style="overflow:visible;fill-rule:evenodd;clip-rule:evenodd;fill:#FFFFFF;"/>
	<clipPath id="SVGID_62_">
		<use xlink:href="#SVGID_61_"  style="overflow:visible;"/>
	</clipPath>
	<g class="st30">
		<defs>
			<rect id="SVGID_63_" x="1" y="2" width="100" height="34"/>
		</defs>
		<use xlink:href="#SVGID_63_"  style="overflow:visible;fill:#FFFFFF;"/>
		<clipPath id="SVGID_64_">
			<use xlink:href="#SVGID_63_"  style="overflow:visible;"/>
		</clipPath>
		<rect x="77.9" y="26.5" class="st31" width="10.4" height="14.1"/>
	</g>
</g>
<g>
	<defs>
		<path id="SVGID_65_" d="M89.8,32.2l-0.3,0.1c-0.4-0.5-1-0.7-1.8-0.7c-0.6,0-1,0.2-1.4,0.5c-0.4,0.4-0.7,0.8-0.7,1.4
			c0,0.5,0.2,1,0.6,1.3c0.4,0.3,0.9,0.5,1.5,0.5c0.8,0,1.4-0.2,1.8-0.7l0.3,0.2c-0.4,0.6-1.1,0.8-2.1,0.8c-0.5,0-1-0.1-1.4-0.3
			c-0.4-0.2-0.6-0.4-0.8-0.8c-0.2-0.3-0.3-0.7-0.3-1.1c0-0.7,0.3-1.2,0.8-1.6c0.5-0.4,1-0.6,1.7-0.6C88.6,31.3,89.4,31.6,89.8,32.2"
			/>
	</defs>
	<use xlink:href="#SVGID_65_"  style="overflow:visible;fill-rule:evenodd;clip-rule:evenodd;fill:#FFFFFF;"/>
	<clipPath id="SVGID_66_">
		<use xlink:href="#SVGID_65_"  style="overflow:visible;"/>
	</clipPath>
	<g class="st32">
		<defs>
			<rect id="SVGID_67_" x="1" y="2" width="100" height="34"/>
		</defs>
		<use xlink:href="#SVGID_67_"  style="overflow:visible;fill:#FFFFFF;"/>
		<clipPath id="SVGID_68_">
			<use xlink:href="#SVGID_67_"  style="overflow:visible;"/>
		</clipPath>
		<rect x="80.2" y="26.3" class="st33" width="14.6" height="14.4"/>
	</g>
</g>
</svg>
