<svg width="20" height="20" viewBox="0 0 20 20" fill="none" xmlns="http://www.w3.org/2000/svg">
<path d="M18.333 14.1002V16.6002C18.3339 16.8322 18.2864 17.062 18.1934 17.2746C18.1004 17.4873 17.964 17.6782 17.793 17.835C17.622 17.9919 17.4201 18.1114 17.2002 18.1858C16.9804 18.2601 16.7474 18.2877 16.5163 18.2668C13.952 17.9882 11.4888 17.1119 9.32462 15.7085C7.31114 14.429 5.60407 12.722 4.32462 10.7085C2.91627 8.5345 2.03982 6.05932 1.76629 3.4835C1.74546 3.25305 1.77285 3.0208 1.8467 2.80152C1.92056 2.58224 2.03926 2.38074 2.19526 2.20985C2.35125 2.03896 2.54112 1.90242 2.75278 1.80893C2.96443 1.71544 3.19324 1.66705 3.42462 1.66683H5.92462C6.32904 1.66285 6.72111 1.80606 7.02775 2.06977C7.33439 2.33348 7.53468 2.6997 7.59128 3.10016C7.6968 3.90022 7.89249 4.68577 8.17462 5.44183C8.28674 5.7401 8.311 6.06426 8.24454 6.3759C8.17808 6.68753 8.02367 6.97359 7.79962 7.20016L6.74129 8.2585C7.92758 10.3448 9.655 12.0722 11.7413 13.2585L12.7996 12.2002C13.0262 11.9761 13.3122 11.8217 13.6239 11.7552C13.9355 11.6888 14.2597 11.713 14.558 11.8252C15.314 12.1073 16.0996 12.303 16.8996 12.4085C17.3044 12.4656 17.6741 12.6695 17.9384 12.9814C18.2027 13.2933 18.3431 13.6915 18.333 14.1002Z" stroke="#999999" stroke-linecap="round" stroke-linejoin="round"/>
</svg>
